<svg width="26" height="34" fill="none" xmlns="http://www.w3.org/2000/svg"><path d="M23.725 9.563v-.1h-4.35a3.087 3.087 0 01-3.087-3.088v-4.35H4.5A2.225 2.225 0 002.275 4.25v25.5A2.225 2.225 0 004.5 31.975h17a2.225 2.225 0 002.225-2.225V9.562zm1.925.04V29.75a4.15 4.15 0 01-4.15 4.15h-17a4.15 4.15 0 01-4.15-4.15V4.25A4.15 4.15 0 014.5.1h11.646l9.504 9.504z" fill="#000" stroke="#A99478" stroke-width=".2"/><path d="M21.017 23.56c.255.306.41.68.425 1.1m-.425-1.1c-.48-.574-1.267-.848-2.04-.988m2.04.988l-.077.064m.076-.064l-.076.064m.502 1.037l-5.3-2.196a12.228 12.228 0 012.835.107m2.465 2.088c.014.409-.1.812-.294 1.197l.294-1.197zm-2.465-2.088l-.018.098s0 0 0 0m.018-.098l-.016.099h-.001m0 0c.767.139 1.523.407 1.98.953m-1.98-.954a12.12 12.12 0 00-2.81-.105l-.057.005-.033-.047a23.371 23.371 0 01-2.091-3.598l-.018-.038.015-.04c.53-1.399.923-2.718 1.1-3.793m5.874 8.57h0m0 0l-5.676-9.858m5.676 9.858c.241.29.387.643.401 1.04h0c.015.387-.094.774-.282 1.148h0l-.001.002a2.11 2.11 0 01-.718.844 1.719 1.719 0 01-1.023.276h0c-.672-.028-1.337-.399-1.925-.864a12.035 12.035 0 01-1.919-2.001l-.034-.046-.057.007a24.866 24.866 0 00-4.26.866l-.04.012-.019.035a23.928 23.928 0 01-2.158 3.194c-.619.742-1.279 1.375-1.93 1.644h0l-.003.001a1.585 1.585 0 01-1.157.059A1.621 1.621 0 014.94 29h0m15.999-5.377L4.939 29m10.125-13.947s0 0 0 0l.1.016-.1-.016s0 0 0 0zm0 0c.074-.46.114-.894.1-1.285m0 0s0 0 0 0l.1-.003m-.1.003c-.015-.379-.082-.77-.259-1.1h0a1.388 1.388 0 00-.946-.724c-.403-.086-.823-.002-1.221.158m2.425 1.666l.1-.003m0 0l-2.525-1.663m0 0s0 0 0 0l-.038-.093m.038.093l2.255.52a1.488 1.488 0 00-1.013-.776c-.43-.092-.872 0-1.28.163m.038.093l-.038-.093m.038.093l-.038-.093m.038.093c-.76.306-1.167.948-1.321 1.677m1.32-1.677l-1.32 1.677M4.94 29.001l-.002-.004m.002.004l-.002-.004m0 0c-.396-.787-.266-1.573.165-2.242.408-.634 1.09-1.178 1.872-1.64a16.218 16.218 0 013.129-1.362l.038-.012m-5.204 5.256l5.204-5.256m0 0l.02-.035m-.02.035l.02-.035m0 0a41.952 41.952 0 002.261-4.744l.016-.039m-2.278 4.783l2.278-4.783m0 0l-.017-.038m.017.038l-.017-.038m0 0a15.353 15.353 0 01-.908-2.734m.908 2.734l-1.005-5.105m0 0h0c-.15.703-.084 1.528.098 2.371m0 0s0 0 0 0l-.098.022.098-.02v-.002zm6.802 8.745l-.062.079s0 0 0 0a8.175 8.175 0 01-.905-.848h-.058v-.358l.147.159 2.137 1.566h0l.01-.007a.751.751 0 00.227-.3m-1.496-.29c.51.403.865.537 1.058.543m-1.058-.544a7.909 7.909 0 01-.828-.768l.828.768zm1.058.544l-.013.1h.01l.003-.1zm0 0a.227.227 0 00.149-.032.653.653 0 00.2-.265m0 0l.086.05a.12.12 0 00.003-.006m-.09-.044a.927.927 0 00.126-.425l-.036.47m-.09-.045l.093.038-.003.006m-6.753-8.616a9.512 9.512 0 01-.183-.71h0c-.163-.757-.187-1.361-.098-1.789h0c.042-.197.105-.344.187-.453a.66.66 0 01.288-.22c.107-.046.22-.077.335-.092l.081-.01.026.078c.049.145.074.297.073.45v.003h-.1l-.609 2.743zm0 0l-.032.104h.272l-.03-.103-.21-.001zm-4.267 9.38l.198-.295-.323.148c-.356.163-.686.335-.985.51h0c-.702.416-1.17.828-1.408 1.195-.105.162-.164.31-.177.456a.742.742 0 00.086.409c.025.054.05.09.066.11l.04.054.065-.018a.666.666 0 00.087-.03c.316-.128.792-.526 1.388-1.243h0c.341-.418.662-.85.963-1.296zm3.302-2.882v.126l.122-.029a26.7 26.7 0 012.139-.408l.154-.023-.085-.13a24.882 24.882 0 01-1.08-1.817l-.097-.18-.082.187a44.038 44.038 0 01-1.06 2.226l-.011.022v.026z" fill="#000" stroke="#A99478" stroke-width=".2"/></svg>