<svg width="22" height="16" fill="none" xmlns="http://www.w3.org/2000/svg"><path d="M22 8S17.875.437 11 .437 0 8 0 8s4.125 7.563 11 7.563S22 8 22 8zM1.613 8a18.058 18.058 0 012.282-2.81C5.665 3.419 8.085 1.813 11 1.813s5.334 1.606 7.106 3.379A18.056 18.056 0 0120.388 8c-.08.12-.167.252-.268.396-.46.66-1.14 1.54-2.014 2.413-1.772 1.773-4.192 3.379-7.106 3.379-2.915 0-5.334-1.607-7.106-3.379A18.058 18.058 0 011.611 8h.002z" fill="#A99478"/><path d="M11 4.563a3.437 3.437 0 100 6.874 3.437 3.437 0 000-6.874zM6.187 8a4.813 4.813 0 119.626 0 4.813 4.813 0 01-9.626 0z" fill="#A99478"/></svg>