<svg width="19" height="19" fill="none" xmlns="http://www.w3.org/2000/svg"><path d="M16.625 5.344v5.343h-1.188V5.345h-2.374a1.781 1.781 0 01-1.782-1.782V1.188H4.75a1.188 1.188 0 00-1.188 1.187v8.313H2.375V2.374A2.375 2.375 0 014.75 0h6.531l5.344 5.344zm-1.188 8.906h1.188v2.375A2.375 2.375 0 0114.25 19h-9.5a2.375 2.375 0 01-2.375-2.375V14.25h1.188v2.375a1.188 1.188 0 001.187 1.188h9.5a1.188 1.188 0 001.188-1.188V14.25zM.595 11.875a.594.594 0 000 1.188h17.812a.594.594 0 000-1.188H.594z" fill="#616870"/></svg>