<svg width="20" height="23" fill="none" xmlns="http://www.w3.org/2000/svg"><path fill-rule="evenodd" clip-rule="evenodd" d="M9.78.25c5.118 0 9.282 4.195 9.282 9.352 0 6.34-7.263 12.585-9.281 12.585-2.019 0-9.282-6.246-9.282-12.585C.5 4.445 4.663.25 9.781.25zm0 1.687c-4.187 0-7.593 3.44-7.593 7.665 0 5.376 6.327 10.614 7.594 10.893 1.266-.28 7.593-5.518 7.593-10.893 0-4.226-3.406-7.665-7.593-7.665zm.002 3.938a3.66 3.66 0 013.656 3.657 3.66 3.66 0 01-3.656 3.655 3.66 3.66 0 01-3.656-3.655 3.66 3.66 0 013.656-3.657zm0 1.687a1.97 1.97 0 101.969 1.97c0-1.087-.884-1.97-1.97-1.97z" fill="#A99478"/></svg>