<svg width="20" height="20" fill="none" xmlns="http://www.w3.org/2000/svg"><g clip-path="url(#clip0)"><path fill-rule="evenodd" clip-rule="evenodd" d="M14.512 11.985c-.248-.124-1.465-.723-1.692-.806-.227-.082-.392-.123-.558.125-.165.247-.639.805-.783.97-.145.166-.289.186-.536.063-.248-.125-1.046-.386-1.992-1.23-.736-.656-1.234-1.467-1.378-1.715-.144-.248-.016-.382.109-.505.111-.111.247-.29.371-.434.124-.145.165-.248.248-.414.083-.165.041-.309-.021-.433s-.557-1.343-.763-1.84c-.201-.482-.405-.416-.557-.424a10.19 10.19 0 00-.475-.009.907.907 0 00-.66.31c-.228.248-.867.847-.867 2.066 0 1.219.887 2.396 1.011 2.562.124.165 1.746 2.666 4.23 3.739a14.17 14.17 0 001.412.52c.593.19 1.133.163 1.56.1.475-.072 1.465-.6 1.671-1.178.206-.579.206-1.075.145-1.178-.062-.103-.227-.165-.475-.289zm-4.518 6.17h-.003a8.225 8.225 0 01-4.193-1.15l-.3-.177-3.119.818.833-3.04-.196-.312a8.217 8.217 0 01-1.26-4.383c.002-4.542 3.697-8.237 8.242-8.237 2.2 0 4.268.859 5.823 2.415a8.188 8.188 0 012.41 5.828c-.002 4.541-3.697 8.237-8.237 8.237zm7.01-15.248A9.847 9.847 0 009.994 0C4.531 0 .084 4.446.083 9.91a9.866 9.866 0 001.322 4.954L0 20l5.253-1.378a9.901 9.901 0 004.737 1.206h.004c5.462 0 9.909-4.445 9.91-9.91a9.85 9.85 0 00-2.9-7.011z" fill="#fff"/></g><defs><clipPath id="clip0"><path fill="#fff" d="M0 0h20v20H0z"/></clipPath></defs></svg>