<svg width="18" height="19" fill="none" xmlns="http://www.w3.org/2000/svg"><path d="M3.252 2.38a8.128 8.128 0 1111.496 11.496l-1.108 1.096c-.817.801-1.877 1.832-3.18 3.092a2.1 2.1 0 01-2.92 0l-3.259-3.17c-.41-.403-.752-.742-1.029-1.018a8.127 8.127 0 010-11.495zm10.505.99a6.729 6.729 0 00-9.514 9.517l1.387 1.37c.958.936 1.92 1.87 2.883 2.8a.7.7 0 00.973 0l3.169-3.08c.439-.43.805-.793 1.101-1.09a6.728 6.728 0 000-9.515l.001-.002zM9 5.584a2.803 2.803 0 110 5.604 2.802 2.802 0 010-5.603v-.001zm0 1.4a1.402 1.402 0 100 2.802 1.402 1.402 0 000-2.801v-.001z" fill="#616870"/></svg>