<svg width="18" height="12" fill="none" xmlns="http://www.w3.org/2000/svg"><path fill-rule="evenodd" clip-rule="evenodd" d="M17.587 1.461c.125-.41 0-.711-.596-.711h-1.968c-.502 0-.732.26-.858.548 0 0-1.001 2.397-2.42 3.954-.458.451-.667.594-.917.594-.125 0-.314-.143-.314-.553V1.46c0-.492-.138-.711-.555-.711H6.863c-.313 0-.5.228-.5.445 0 .466.709.573.781 1.884v2.849c0 .625-.114.738-.365.738-.667 0-2.291-2.408-3.255-5.164C3.337.966 3.148.75 2.645.75H.675C.112.75 0 1.01 0 1.298c0 .51.667 3.052 3.109 6.412 1.627 2.295 3.918 3.539 6.006 3.539 1.252 0 1.406-.276 1.406-.752V8.763c0-.553.118-.663.515-.663.293 0 .793.144 1.962 1.25 1.335 1.312 1.554 1.9 2.306 1.9h1.969c.562 0 .844-.276.682-.822-.178-.543-.816-1.331-1.661-2.267-.46-.532-1.148-1.106-1.357-1.393-.292-.368-.208-.532 0-.86 0 0 2.4-3.32 2.65-4.447z" fill="#fff"/></svg>