<svg width="18" height="14" fill="none" xmlns="http://www.w3.org/2000/svg"><path d="M17.625 2.88a2.09 2.09 0 00-.575-.952 2.288 2.288 0 00-1.003-.557c-1.409-.37-7.052-.37-7.052-.37a57.466 57.466 0 00-7.042.352 2.37 2.37 0 00-1.004.57 2.172 2.172 0 00-.583.957A21.817 21.817 0 000 7c-.009 1.38.113 2.76.366 4.12.103.36.303.688.581.952.278.265.625.456 1.006.558C3.38 13 8.995 13 8.995 13a57.49 57.49 0 007.052-.352 2.289 2.289 0 001.003-.557c.278-.265.475-.594.574-.952.259-1.359.385-2.739.376-4.122a19.938 19.938 0 00-.375-4.137zM7.201 9.568V4.433L11.897 7 7.2 9.568z" fill="#fff"/></svg>