<svg width="22" height="20" fill="none" xmlns="http://www.w3.org/2000/svg"><path fill-rule="evenodd" clip-rule="evenodd" d="M15.659 0c3.33 0 5.84 2.717 5.84 6.32v6.868c0 1.844-.651 3.51-1.836 4.692-1.063 1.059-2.442 1.62-3.988 1.62H5.822c-1.543 0-2.921-.56-3.985-1.62C.652 16.698 0 15.032 0 13.188V6.32C0 2.717 2.51 0 5.84 0h9.819zm0 1.5H5.84C3.326 1.5 1.5 3.527 1.5 6.32v6.868c0 1.443.496 2.732 1.396 3.629C3.672 17.592 4.685 18 5.825 18h9.834c.002-.002.01 0 .016 0 1.14 0 2.153-.408 2.929-1.183.9-.897 1.396-2.186 1.396-3.629V6.32c0-2.793-1.826-4.82-4.341-4.82zm1.576 4.629a.75.75 0 01-.11 1.055l-4.443 3.612a3.042 3.042 0 01-3.799.006L4.398 7.186a.751.751 0 01.94-1.168L9.82 9.63a1.544 1.544 0 001.923-.004l4.436-3.606a.75.75 0 011.056.109z" fill="#fff"/></svg>