<svg width="19" height="19" fill="none" xmlns="http://www.w3.org/2000/svg"><path fill-rule="evenodd" clip-rule="evenodd" d="M13.787 11.386c-.236-.118-1.393-.687-1.608-.766-.215-.078-.372-.117-.53.119-.156.234-.607.765-.744.921-.137.158-.274.177-.51.06-.235-.119-.993-.367-1.892-1.168-.699-.624-1.171-1.394-1.308-1.63-.137-.235-.015-.362.103-.48.106-.105.235-.274.353-.411.118-.138.156-.236.235-.394.079-.157.04-.293-.02-.411-.059-.118-.529-1.277-.725-1.748-.191-.458-.385-.395-.529-.403a10.167 10.167 0 00-.451-.008.862.862 0 00-.627.294c-.216.235-.824.805-.824 1.963 0 1.157.843 2.276.96 2.433.119.157 1.66 2.534 4.02 3.553.561.242 1 .387 1.34.494.564.18 1.077.155 1.482.094.451-.068 1.392-.57 1.588-1.119.196-.55.196-1.02.137-1.118-.058-.099-.215-.157-.45-.275zm-4.293 5.86h-.003a7.815 7.815 0 01-3.983-1.09l-.285-.17-2.963.778.791-2.888-.186-.296a7.807 7.807 0 01-1.196-4.165C1.67 5.101 5.18 1.59 9.498 1.59a7.77 7.77 0 015.532 2.295 7.779 7.779 0 012.29 5.536c-.002 4.314-3.513 7.826-7.826 7.826zm6.66-14.485A9.355 9.355 0 009.494 0C4.305 0 .08 4.224.079 9.415a9.39 9.39 0 001.257 4.706L0 19l4.99-1.31a9.405 9.405 0 004.5 1.147h.004c5.189 0 9.413-4.224 9.415-9.415a9.359 9.359 0 00-2.755-6.66z" fill="#fff"/></svg>