<svg width="204" height="82" fill="none" xmlns="http://www.w3.org/2000/svg"><path d="M25.45 49.86h-2.27v31.555h2.27V49.861zm35.075 3.042h-2.268v6.756h-4.45v2.252h4.45v19.505h2.268V61.91h4.45v-2.251h-4.45v-6.756zM48.891 62.7c-1.367-1.99-3.344-3.48-5.816-4.241a10.88 10.88 0 00-3.374-.556h-.408a10.88 10.88 0 00-3.373.556c-4.974 1.52-7.94 6.053-7.94 11.493 0 5.468 2.966 9.972 7.94 11.492 1.076.351 2.21.556 3.373.556h.408c1.163 0 2.297-.205 3.373-.556 2.473-.76 4.45-2.251 5.817-4.24v4.211h2.269V58.546h-2.269V62.7zm-.145 7.252c0 4.562-2.414 8.13-6.311 9.3h-.059a8.234 8.234 0 01-2.646.438h-.407a8.105 8.105 0 01-2.647-.439h-.058c-3.898-1.199-6.312-4.767-6.312-9.3 0-4.532 2.414-8.1 6.312-9.299h.058a8.237 8.237 0 012.646-.439h.408c.901 0 1.803.147 2.646.439h.059c3.868 1.17 6.282 4.737 6.311 9.3zM199.55 59.658v-6.756h-2.269v6.756h-4.45v2.252h4.45v19.505h2.269V61.91H204v-2.251h-4.45zM0 49.86v31.555h2.269V66.033h16.956v-2.281H2.269v-11.58h19.66V49.86H0zM124.512 62.7c-1.367-1.99-3.345-3.48-5.817-4.241a10.887 10.887 0 00-3.374-.556h-.407c-1.164 0-2.298.205-3.374.556-4.974 1.52-7.94 6.053-7.94 11.493 0 5.468 2.966 9.972 7.94 11.492 1.076.351 2.21.556 3.374.556h.407c1.163 0 2.297-.205 3.374-.556 2.472-.76 4.45-2.251 5.817-4.24v4.211h2.268V58.546h-2.268V62.7zm-.146 7.252c0 4.562-2.414 8.13-6.311 9.3h-.058a8.24 8.24 0 01-2.647.438h-.407a8.103 8.103 0 01-2.647-.439h-.058c-3.898-1.199-6.312-4.767-6.312-9.3 0-4.532 2.414-8.1 6.312-9.299h.058a8.235 8.235 0 012.647-.439h.407c.901 0 1.803.147 2.647.439h.058c3.868 1.17 6.282 4.737 6.311 9.3zM92.925 58.079c-1.803 0-3.635.38-5.031 1.11-1.425.761-2.501 1.785-3.258 3.1-.61-1.403-1.367-2.456-2.617-3.158s-2.734-1.082-4.45-1.082c-1.687 0-3.17.322-4.48.995-1.25.643-2.413 1.55-3.14 2.72-.03.087-.058.204-.088.292v-3.539h-2.268v22.869h2.268V67.787l.03-.087c0-2.252.901-4.036 2.152-5.323 1.221-1.286 2.908-1.93 5.002-1.93 1.89 0 3.549.38 4.567 1.492 1.018 1.082 1.338 2.836 1.338 4.913v14.651h2.472V67.7c0-2.252.901-4.036 2.123-5.323 1.221-1.286 2.88-1.93 5.002-1.93 1.862 0 3.49.38 4.538 1.492 1.018 1.082 1.628 2.836 1.628 4.913v14.651h2.473V66.588c0-2.807-.728-4.942-2.21-6.404-1.455-1.404-3.491-2.105-6.05-2.105zm40.341 4.796v-4.328h-2.269v22.868h2.269V69.542c1.512-10.177 9.394-9.036 9.86-8.948v-2.486c-8.057-.263-9.831 4.65-9.86 4.767zm34.291-4.68h-3.868l-15.91 11.698V49.86h-2.268v31.554h2.268V72.73l5.323-3.89 11.925 12.721h3.17l-13.263-14.095 12.623-9.27zm24.257 11.756c0-.321 0-.643-.03-.964v-.234h-.029c-.407-4.913-3.054-8.92-7.765-10.324a11.108 11.108 0 00-3.432-.555h-.407a11.1 11.1 0 00-3.432.555c-5.09 1.521-8.086 6.054-8.086 11.493 0 5.469 3.025 9.972 8.086 11.493a11.1 11.1 0 003.432.556h.407c1.192 0 2.356-.205 3.432-.556 3.664-1.111 6.253-3.743 7.416-7.194h-2.443c-1.047 2.398-2.995 4.211-5.584 4.972h-.058a8.632 8.632 0 01-2.734.438h-.407a8.628 8.628 0 01-2.734-.438h-.058c-3.694-1.112-6.108-4.27-6.428-8.335h20.854c-.03-.263 0-.585 0-.907zm-20.854-1.198c.407-3.978 2.763-7.019 6.398-8.13h.059a8.63 8.63 0 012.734-.439h.407c.93 0 1.861.146 2.734.439h.058c3.636 1.082 5.73 4.152 6.137 8.13H170.96zM102.291 0L77.86 24.565l24.43 24.565 24.431-24.565L102.291 0zm0 46.761L89.174 33.572h26.234l-13.117 13.19zm-6.719-15.09v-3.275h12.565v-.293H95.572v-.76h12.565v-.292H95.572v-.76h12.565v-.293H95.572v-.76h12.565v-.293H95.572v-.76h12.565v-.293H95.572V21.29h17.887v-.293H95.281V31.7h-.698V20.208h18.876v-.293H94.293v11.756h-.698V19.125h19.864v-.292H93.304v12.838h-.698V18.073h20.853v-.293H92.315v13.891h-.698v-14.68h21.871v-.293H91.326v14.973h-4.014l-7.126-7.106L102.291 2.34l22.104 22.225-7.067 7.106H95.572z" fill="#fff"/></svg>