<svg width="20" height="20" viewBox="0 0 20 20" fill="none" xmlns="http://www.w3.org/2000/svg">
<g clip-path="url(#clip0)">
<path fill-rule="evenodd" clip-rule="evenodd" d="M14.5125 11.985C14.2642 11.8609 13.0467 11.2625 12.82 11.1792C12.5933 11.0967 12.4283 11.0559 12.2625 11.3042C12.0975 11.5509 11.6233 12.1092 11.4792 12.2742C11.3342 12.44 11.19 12.46 10.9425 12.3367C10.695 12.2117 9.89667 11.9509 8.95083 11.1075C8.215 10.4509 7.7175 9.64003 7.57333 9.3917C7.42917 9.1442 7.5575 9.01003 7.68167 8.8867C7.79333 8.77587 7.92917 8.59753 8.05333 8.45337C8.1775 8.30837 8.21833 8.20504 8.30083 8.0392C8.38417 7.8742 8.3425 7.73003 8.28 7.60587C8.21833 7.4817 7.72333 6.26253 7.51667 5.7667C7.31583 5.2842 7.11167 5.35003 6.96 5.3417C6.815 5.33503 6.65 5.33337 6.485 5.33337C6.32 5.33337 6.05167 5.39503 5.825 5.64337C5.5975 5.89087 4.95833 6.49003 4.95833 7.7092C4.95833 8.92754 5.845 10.105 5.96917 10.2709C6.09333 10.4359 7.715 12.9375 10.1992 14.01C10.7908 14.265 11.2517 14.4175 11.6108 14.5309C12.2042 14.72 12.7442 14.6934 13.1708 14.6292C13.6458 14.5584 14.6358 14.03 14.8425 13.4517C15.0483 12.8734 15.0483 12.3775 14.9867 12.2742C14.925 12.1709 14.76 12.1092 14.5117 11.985H14.5125ZM9.99417 18.1542H9.99083C8.51536 18.1545 7.06698 17.7578 5.7975 17.0059L5.4975 16.8275L2.37917 17.6459L3.21167 14.6059L3.01583 14.2942C2.19095 12.9812 1.75441 11.4615 1.75667 9.91087C1.75833 5.3692 5.45333 1.6742 9.9975 1.6742C12.1975 1.6742 14.2658 2.53253 15.8208 4.0892C16.5878 4.85302 17.1957 5.76134 17.6094 6.76162C18.0231 7.76189 18.2343 8.83427 18.2308 9.9167C18.2292 14.4584 14.5342 18.1542 9.99417 18.1542ZM17.0042 2.9067C16.086 1.98247 14.9935 1.24965 13.7901 0.750701C12.5866 0.251754 11.2961 -0.00339687 9.99333 3.4148e-05C4.53167 3.4148e-05 0.085 4.44587 0.0833333 9.91004C0.0825 11.6567 0.538333 13.3617 1.40583 14.8642L0 20L5.25333 18.6217C6.70656 19.4135 8.33508 19.8283 9.99 19.8284H9.99417C15.4558 19.8284 19.9025 15.3825 19.9042 9.91753C19.9082 8.61526 19.654 7.32512 19.1562 6.12173C18.6584 4.91834 17.927 3.82559 17.0042 2.9067Z" fill="white"/>
</g>
<defs>
<clipPath id="clip0">
<rect width="20" height="20" fill="white"/>
</clipPath>
</defs>
</svg>
