<svg width="18" height="14" viewBox="0 0 18 14" fill="none" xmlns="http://www.w3.org/2000/svg">
<path d="M17.625 2.88031C17.5231 2.51673 17.3245 2.18757 17.0505 1.92781C16.7687 1.66006 16.4233 1.46853 16.047 1.37131C14.6385 1.00006 8.99547 1.00006 8.99547 1.00006C6.64297 0.973292 4.29105 1.09101 1.95297 1.35256C1.57662 1.45697 1.2319 1.65277 0.949475 1.92256C0.671975 2.18956 0.470975 2.51881 0.365975 2.87956C0.113744 4.23836 -0.00880638 5.61807 -2.53938e-05 7.00006C-0.00902539 8.38081 0.113225 9.76006 0.365975 11.1206C0.468725 11.4798 0.668975 11.8076 0.947225 12.0723C1.22547 12.3371 1.57197 12.5283 1.95297 12.6296C3.38022 13.0001 8.99547 13.0001 8.99547 13.0001C11.351 13.0269 13.7059 12.9091 16.047 12.6476C16.4233 12.5503 16.7687 12.3588 17.0505 12.0911C17.328 11.8263 17.5252 11.4971 17.6242 11.1386C17.883 9.78027 18.0089 8.4 18 7.01731C18.0194 5.62876 17.8938 4.24198 17.625 2.87956V2.88031ZM7.20147 9.56806V4.43281L11.8965 7.00081L7.20147 9.56806Z" fill="white"/>
</svg>
