<svg width="26" height="34" viewBox="0 0 26 34" fill="none" xmlns="http://www.w3.org/2000/svg">
<path d="M23.725 9.5625V9.4625H23.625H19.375C18.5561 9.4625 17.7708 9.13721 17.1918 8.55819C16.6128 7.97917 16.2875 7.19386 16.2875 6.375V2.125V2.025H16.1875H4.5C3.90989 2.025 3.34396 2.25942 2.92669 2.67669C2.50942 3.09396 2.275 3.65989 2.275 4.25V29.75C2.275 30.3401 2.50942 30.906 2.92669 31.3233C3.34396 31.7406 3.90989 31.975 4.5 31.975H21.5C22.0901 31.975 22.656 31.7406 23.0733 31.3233C23.4906 30.906 23.725 30.3401 23.725 29.75V9.5625ZM25.65 9.60392V29.75C25.65 30.8506 25.2128 31.9062 24.4345 32.6845C23.6562 33.4628 22.6006 33.9 21.5 33.9H4.5C3.39935 33.9 2.34378 33.4628 1.56551 32.6845C0.787231 31.9062 0.35 30.8506 0.35 29.75V4.25C0.35 3.14935 0.787231 2.09378 1.56551 1.31551C2.34378 0.537231 3.39935 0.1 4.5 0.1H16.1461L25.65 9.60392Z" fill="black" stroke="#A99478" stroke-width="0.2"/>
<path d="M21.0165 23.5598C21.2715 23.8658 21.4266 24.2398 21.4415 24.6605M21.0165 23.5598C20.5362 22.986 19.75 22.7119 18.9765 22.5716M21.0165 23.5598L20.9396 23.6238M21.0165 23.5598L20.9398 23.624M21.4415 24.6605L16.1417 22.4654C17.0876 22.3907 18.0389 22.4263 18.9765 22.5716M21.4415 24.6605C21.4563 25.0685 21.3416 25.4723 21.1482 25.8569L21.4415 24.6605ZM18.9765 22.5716L18.9586 22.67C18.959 22.6701 18.9595 22.6702 18.9599 22.6703M18.9765 22.5716L18.9612 22.6705C18.9607 22.6704 18.9603 22.6703 18.9599 22.6703M18.9599 22.6703C19.7269 22.8095 20.4829 23.0782 20.9396 23.6238M18.9599 22.6703C18.0304 22.5263 17.0873 22.491 16.1496 22.5651L16.0929 22.5696L16.0601 22.5231C15.2573 21.3883 14.5574 20.1842 13.9686 18.925L13.9507 18.8867L13.9657 18.8472C14.4957 17.448 14.8885 16.129 15.0655 15.0543M20.9396 23.6238L20.9398 23.624M20.9396 23.6238L15.2641 13.7656M20.9398 23.624C21.1814 23.914 21.3275 24.2669 21.3415 24.6641L21.3415 24.6642C21.3556 25.0509 21.247 25.4378 21.0589 25.812L21.0588 25.812L21.0577 25.8144C20.8979 26.1543 20.6503 26.4455 20.3404 26.6577C20.037 26.8554 19.6789 26.9522 19.3172 26.9343L19.3164 26.9342C18.6452 26.9058 17.9797 26.5353 17.3925 26.0703C16.6778 25.4793 16.0339 24.8077 15.4734 24.0688L15.439 24.0235L15.3824 24.0299C13.9396 24.1937 12.5139 24.4835 11.1217 24.8961L11.0829 24.9076L11.063 24.9429C10.4308 26.0641 9.70918 27.1324 8.90515 28.1375C8.28616 28.8793 7.62598 29.5124 6.97463 29.7807L6.97461 29.7806L6.9715 29.782C6.60712 29.9469 6.19394 29.9679 5.81477 29.8409C5.42585 29.6846 5.11255 29.3837 4.94068 29.0013L4.94077 29.0012M20.9398 23.624L4.94077 29.0012M15.0655 15.0543C15.0655 15.0544 15.0655 15.0545 15.0655 15.0545L15.1642 15.0704L15.0655 15.0541C15.0655 15.0542 15.0655 15.0543 15.0655 15.0543ZM15.0655 15.0543C15.1393 14.5948 15.1787 14.1599 15.1642 13.7694M15.1642 13.7694C15.1642 13.7694 15.1642 13.7694 15.1642 13.7695L15.2641 13.7656M15.1642 13.7694C15.1496 13.3901 15.083 12.9993 14.9061 12.6697L14.9052 12.6681L14.9053 12.6681C14.8112 12.4849 14.6776 12.3249 14.5141 12.1998C14.3505 12.0746 14.1612 11.9875 13.9598 11.9446C13.5574 11.8589 13.1369 11.9435 12.7386 12.1032M15.1642 13.7694L15.2641 13.7656M15.2641 13.7656L12.7386 12.1032M12.7386 12.1032C12.7386 12.1032 12.7386 12.1032 12.7386 12.1032L12.7013 12.0104M12.7386 12.1032L14.9942 12.6224C14.8934 12.426 14.7501 12.2545 14.5748 12.1203C14.3995 11.9862 14.1965 11.8927 13.9806 11.8468C13.5513 11.7554 13.1093 11.8468 12.7013 12.0104M12.7386 12.1032L12.7013 12.0104M12.7386 12.1032L12.7013 12.0104M12.7386 12.1032C11.9784 12.4085 11.5723 13.0512 11.4179 13.78M12.7386 12.1032L11.4179 13.78M4.94077 29.0012L4.93882 28.9974M4.94077 29.0012L4.93882 28.9974M4.93882 28.9974C4.54324 28.2103 4.67268 27.4235 5.10354 26.7547C5.51196 26.1214 6.19338 25.5766 6.9757 25.1147C7.96798 24.552 9.01684 24.0955 10.1049 23.7529L10.1429 23.7409M4.93882 28.9974L10.1429 23.7409M10.1429 23.7409L10.1622 23.7061M10.1429 23.7409L10.1622 23.7061M10.1622 23.7061C11.0147 22.1737 11.7702 20.5894 12.4244 18.9625L12.4401 18.9234M10.1622 23.7061L12.4401 18.9234M12.4401 18.9234L12.4231 18.8849M12.4401 18.9234L12.4231 18.8849M12.4231 18.8849C12.0356 18.0042 11.7317 17.0891 11.5155 16.1515M12.4231 18.8849L11.4179 13.78M11.4179 13.78L11.4179 13.7803C11.2671 14.4827 11.3341 15.308 11.5155 16.1515M11.5155 16.1515C11.5154 16.1513 11.5153 16.151 11.5153 16.1508L11.4178 16.1733L11.5156 16.1523C11.5156 16.152 11.5155 16.1518 11.5155 16.1515ZM18.3177 24.8964L18.2557 24.9748C18.2557 24.9748 18.2557 24.9748 18.2556 24.9748C17.9653 24.745 17.6619 24.4616 17.3513 24.127L17.2933 24.1266V24.0273V24.0251V23.7688L17.4396 23.9277L19.5772 25.4937L19.5775 25.4942L19.5867 25.487C19.6868 25.408 19.7651 25.3048 19.8143 25.1872M18.3177 24.8964C18.8277 25.3001 19.1826 25.434 19.376 25.4404M18.3177 24.8964C18.0522 24.6863 17.7747 24.4298 17.4898 24.1285L18.3177 24.8964ZM19.376 25.4404L19.363 25.5395C19.3647 25.5398 19.3663 25.54 19.368 25.5402C19.3696 25.5402 19.3711 25.5403 19.3727 25.5403L19.376 25.4404ZM19.376 25.4404C19.4277 25.4472 19.4803 25.4359 19.5247 25.4085C19.6131 25.3387 19.6819 25.2472 19.7245 25.1429M19.7245 25.1429L19.8108 25.1933C19.812 25.1913 19.8132 25.1893 19.8143 25.1872M19.7245 25.1429C19.8 25.0135 19.843 24.8676 19.8498 24.7179L19.8143 25.1872M19.7245 25.1429L19.8171 25.1807C19.8162 25.1829 19.8153 25.1851 19.8143 25.1872M13.0611 16.571C12.9882 16.3271 12.9271 16.0891 12.8777 15.8608L12.8777 15.8607C12.7148 15.104 12.6908 14.4998 12.7798 14.0725L12.7799 14.0719C12.8223 13.8746 12.8848 13.7279 12.9671 13.6188C13.0501 13.5088 13.1492 13.4423 13.2554 13.3994C13.3619 13.3526 13.4746 13.3216 13.5901 13.3073L13.6711 13.2972L13.6971 13.3746C13.746 13.5199 13.7707 13.6722 13.7703 13.8254C13.7703 13.8262 13.7703 13.8269 13.7703 13.8277L13.6703 13.8273L13.0611 16.571ZM13.0611 16.571L13.0289 16.6749H13.1646H13.1667H13.3014L13.2702 16.5717L13.0611 16.571ZM8.79354 25.951L8.99192 25.6564L8.66897 25.8042C8.3134 25.967 7.98305 26.1386 7.68441 26.3148L7.68431 26.3148C6.98168 26.7304 6.51388 27.1416 6.27643 27.5089C6.17104 27.6714 6.1118 27.8198 6.09872 27.9649C6.08557 28.1108 6.11994 28.2438 6.18516 28.3736C6.21016 28.4282 6.23547 28.4637 6.25059 28.4839L6.29112 28.5379L6.35637 28.5205C6.38599 28.5126 6.41503 28.5027 6.44328 28.4908C6.75889 28.3616 7.23529 27.9641 7.83126 27.2468L7.83179 27.2462C8.17214 26.8295 8.49306 26.3973 8.79354 25.951ZM12.0956 23.0689V23.1949L12.2183 23.1663C12.9253 23.0013 13.6386 22.865 14.3566 22.7577L14.5109 22.7346L14.4256 22.6041C14.0402 22.0143 13.6801 21.4085 13.3461 20.7881L13.2493 20.6082L13.1666 20.7951C12.8341 21.5469 12.4806 22.2892 12.1065 23.0213L12.0956 23.0427V23.0668V23.0689Z" fill="black" stroke="#A99478" stroke-width="0.2"/>
</svg>
