<svg width="14" height="18" viewBox="0 0 14 18" fill="none" xmlns="http://www.w3.org/2000/svg">
<path d="M0.25 1.0835H2.08333V2.91683H0.25V1.0835Z" fill="#616870" stroke="#263241" stroke-width="0.5"/>
<path d="M6.75008 14.8335V15.0835H7.00008H9.33342C10.0186 15.0835 10.6756 14.8113 11.1601 14.3269C11.6446 13.8424 11.9167 13.1853 11.9167 12.5002V5.50016C11.9167 4.81502 11.6446 4.15794 11.1601 3.67347C10.6756 3.189 10.0186 2.91683 9.33342 2.91683H7.00008H6.75008V3.16683V14.8335ZM9.33342 16.9168H4.91675V1.0835H9.33342C10.5048 1.0835 11.6282 1.54882 12.4565 2.37711C13.2848 3.20539 13.7501 4.32879 13.7501 5.50016V12.5002C13.7501 13.6715 13.2848 14.7949 12.4565 15.6232C11.6282 16.4515 10.5048 16.9168 9.33342 16.9168Z" fill="#616870" stroke="#263241" stroke-width="0.5"/>
<path d="M0.25 5.75H2.08333V16.9167H0.25V5.75Z" fill="#616870" stroke="#263241" stroke-width="0.5"/>
</svg>
