<svg width="20" height="23" viewBox="0 0 20 23" fill="none" xmlns="http://www.w3.org/2000/svg">
<path fill-rule="evenodd" clip-rule="evenodd" d="M9.78064 0.249756C14.8983 0.249756 19.0619 4.44488 19.0619 9.60188C19.0619 15.9413 11.7989 22.1873 9.78064 22.1873C7.76239 22.1873 0.49939 15.9413 0.49939 9.60188C0.49939 4.44488 4.66301 0.249756 9.78064 0.249756ZM9.78064 1.93726C5.59339 1.93726 2.18689 5.37638 2.18689 9.60188C2.18689 14.9783 8.51389 20.2163 9.78064 20.4953C11.0474 20.2151 17.3744 14.9771 17.3744 9.60188C17.3744 5.37638 13.9679 1.93726 9.78064 1.93726ZM9.78176 5.87476C11.7978 5.87476 13.438 7.51501 13.438 9.53213C13.438 11.5481 11.7978 13.1873 9.78176 13.1873C7.76576 13.1873 6.12551 11.5481 6.12551 9.53213C6.12551 7.51501 7.76576 5.87476 9.78176 5.87476ZM9.78176 7.56226C8.69614 7.56226 7.81301 8.44538 7.81301 9.53213C7.81301 10.6178 8.69614 11.4998 9.78176 11.4998C10.8674 11.4998 11.7505 10.6178 11.7505 9.53213C11.7505 8.44538 10.8674 7.56226 9.78176 7.56226Z" fill="#A99478"/>
</svg>
