<svg width="19" height="19" viewBox="0 0 19 19" fill="none" xmlns="http://www.w3.org/2000/svg">
<path d="M16.625 5.34375V10.6875H15.4375V5.34375H13.0625C12.5901 5.34375 12.137 5.15608 11.803 4.82203C11.4689 4.48799 11.2812 4.03492 11.2812 3.5625V1.1875H4.75C4.43506 1.1875 4.13301 1.31261 3.91031 1.53531C3.68761 1.75801 3.5625 2.06006 3.5625 2.375V10.6875H2.375V2.375C2.375 1.74511 2.62522 1.14102 3.07062 0.695621C3.51602 0.250223 4.12011 0 4.75 0L11.2812 0L16.625 5.34375ZM15.4375 14.25H16.625V16.625C16.625 17.2549 16.3748 17.859 15.9294 18.3044C15.484 18.7498 14.8799 19 14.25 19H4.75C4.12011 19 3.51602 18.7498 3.07062 18.3044C2.62522 17.859 2.375 17.2549 2.375 16.625V14.25H3.5625V16.625C3.5625 16.9399 3.68761 17.242 3.91031 17.4647C4.13301 17.6874 4.43506 17.8125 4.75 17.8125H14.25C14.5649 17.8125 14.867 17.6874 15.0897 17.4647C15.3124 17.242 15.4375 16.9399 15.4375 16.625V14.25ZM0.59375 11.875C0.436278 11.875 0.285255 11.9376 0.173905 12.0489C0.0625556 12.1603 0 12.3113 0 12.4688C0 12.6262 0.0625556 12.7772 0.173905 12.8886C0.285255 12.9999 0.436278 13.0625 0.59375 13.0625H18.4062C18.5637 13.0625 18.7147 12.9999 18.8261 12.8886C18.9374 12.7772 19 12.6262 19 12.4688C19 12.3113 18.9374 12.1603 18.8261 12.0489C18.7147 11.9376 18.5637 11.875 18.4062 11.875H0.59375Z" fill="#616870"/>
</svg>
