<svg width="19" height="19" viewBox="0 0 19 19" fill="none" xmlns="http://www.w3.org/2000/svg">
<path fill-rule="evenodd" clip-rule="evenodd" d="M13.7869 11.3858C13.551 11.2678 12.3943 10.6994 12.179 10.6202C11.9637 10.5419 11.8069 10.5031 11.6494 10.739C11.4926 10.9733 11.0422 11.5037 10.9052 11.6605C10.7675 11.818 10.6305 11.837 10.3954 11.7199C10.1602 11.6011 9.40183 11.3533 8.50329 10.5522C7.80425 9.92832 7.33163 9.15803 7.19467 8.92212C7.05771 8.68699 7.17963 8.55953 7.29758 8.44237C7.40367 8.33707 7.53271 8.16766 7.65067 8.0307C7.76862 7.89295 7.80742 7.79478 7.88579 7.63724C7.96496 7.48049 7.92537 7.34353 7.866 7.22557C7.80742 7.10762 7.33717 5.94941 7.14083 5.47837C6.95004 5.01999 6.75608 5.08253 6.612 5.07462C6.47425 5.06828 6.3175 5.0667 6.16075 5.0667C6.004 5.0667 5.74908 5.12528 5.53375 5.3612C5.31763 5.59632 4.71042 6.16553 4.71042 7.32374C4.71042 8.48116 5.55275 9.59978 5.67071 9.75732C5.78867 9.91407 7.32925 12.2907 9.68921 13.3095C10.2513 13.5518 10.6891 13.6967 11.0303 13.8043C11.594 13.984 12.107 13.9587 12.5123 13.8977C12.9635 13.8304 13.904 13.3285 14.1004 12.7791C14.2959 12.2297 14.2959 11.7587 14.2373 11.6605C14.1788 11.5623 14.022 11.5037 13.7861 11.3858H13.7869ZM9.49446 17.2465H9.49129C8.08959 17.2467 6.71363 16.8699 5.50763 16.1556L5.22263 15.9862L2.26021 16.7636L3.05108 13.8756L2.86504 13.5795C2.0814 12.3321 1.66669 10.8884 1.66883 9.41532C1.67042 5.10074 5.18067 1.59049 9.49763 1.59049C11.5876 1.59049 13.5525 2.40591 15.0298 3.88474C15.7584 4.61037 16.3359 5.47327 16.7289 6.42353C17.1219 7.3738 17.3226 8.39255 17.3193 9.42087C17.3177 13.7354 13.8075 17.2465 9.49446 17.2465ZM16.154 2.76137C15.2817 1.88335 14.2438 1.18717 13.1006 0.713166C11.9573 0.239166 10.7313 -0.00322703 9.49367 3.24406e-05C4.30508 3.24406e-05 0.08075 4.22357 0.0791667 9.41453C0.078375 11.0739 0.511417 12.6936 1.33554 14.121L0 19L4.99067 17.6906C6.37123 18.4428 7.91832 18.8369 9.4905 18.8369H9.49446C14.683 18.8369 18.9074 14.6134 18.909 9.42166C18.9128 8.1845 18.6713 6.95886 18.1984 5.81564C17.7255 4.67242 17.0306 3.63431 16.154 2.76137Z" fill="white"/>
</svg>
