<svg width="16" height="24" viewBox="0 0 16 24" fill="none" xmlns="http://www.w3.org/2000/svg">
<path d="M6.5 18C6.30109 18 6.11032 18.079 5.96967 18.2197C5.82902 18.3603 5.75 18.5511 5.75 18.75C5.75 18.9489 5.82902 19.1397 5.96967 19.2803C6.11032 19.421 6.30109 19.5 6.5 19.5H9.5C9.69891 19.5 9.88968 19.421 10.0303 19.2803C10.171 19.1397 10.25 18.9489 10.25 18.75C10.25 18.5511 10.171 18.3603 10.0303 18.2197C9.88968 18.079 9.69891 18 9.5 18H6.5Z" fill="#A99478"/>
<path d="M3.5 0C2.70435 0 1.94129 0.31607 1.37868 0.87868C0.81607 1.44129 0.5 2.20435 0.5 3V21C0.5 21.7956 0.81607 22.5587 1.37868 23.1213C1.94129 23.6839 2.70435 24 3.5 24H12.5C13.2956 24 14.0587 23.6839 14.6213 23.1213C15.1839 22.5587 15.5 21.7956 15.5 21V3C15.5 2.20435 15.1839 1.44129 14.6213 0.87868C14.0587 0.31607 13.2956 0 12.5 0H3.5ZM2 3C2 2.60218 2.15804 2.22064 2.43934 1.93934C2.72064 1.65804 3.10218 1.5 3.5 1.5H12.5C12.8978 1.5 13.2794 1.65804 13.5607 1.93934C13.842 2.22064 14 2.60218 14 3V21C14 21.3978 13.842 21.7794 13.5607 22.0607C13.2794 22.342 12.8978 22.5 12.5 22.5H3.5C3.10218 22.5 2.72064 22.342 2.43934 22.0607C2.15804 21.7794 2 21.3978 2 21V3Z" fill="#A99478"/>
</svg>
