<svg width="18" height="19" viewBox="0 0 18 19" fill="none" xmlns="http://www.w3.org/2000/svg">
<path d="M3.25235 2.38077C4.77673 0.856388 6.84423 0 9.00003 0C11.1558 0 13.2233 0.856388 14.7477 2.38077C16.2721 3.90515 17.1285 5.97265 17.1285 8.12845C17.1285 10.2843 16.2721 12.3518 14.7477 13.8761L13.6396 14.9721C12.8228 15.773 11.7633 16.8037 10.4601 18.0639C10.0684 18.4426 9.54486 18.6543 9.00003 18.6543C8.4552 18.6543 7.93169 18.4426 7.54001 18.0639L4.28109 14.8937C3.87127 14.4913 3.52867 14.1525 3.25235 13.8761C2.49752 13.1214 1.89875 12.2253 1.49024 11.2391C1.08172 10.2529 0.87146 9.19591 0.87146 8.12845C0.87146 7.061 1.08172 6.004 1.49024 5.0178C1.89875 4.03161 2.49752 3.13555 3.25235 2.38077ZM13.7573 3.3703C12.4953 2.10861 10.7839 1.39989 8.99937 1.40007C7.21489 1.40024 5.50357 2.10929 4.24188 3.37123C2.98019 4.63317 2.27147 6.34463 2.27165 8.12911C2.27182 9.91359 2.98087 11.6249 4.24281 12.8866L5.63002 14.257C6.58826 15.1933 7.54917 16.1268 8.51273 17.0576C8.64331 17.1839 8.81788 17.2545 8.99957 17.2545C9.18125 17.2545 9.35582 17.1839 9.4864 17.0576L12.6548 13.977C13.0935 13.5466 13.4604 13.1835 13.7563 12.8866C15.018 11.6249 15.7268 9.91367 15.7268 8.12938C15.7268 6.34509 15.018 4.63388 13.7563 3.37217L13.7573 3.3703ZM9.00003 5.58368C9.36805 5.58368 9.73247 5.65616 10.0725 5.797C10.4125 5.93783 10.7214 6.14426 10.9816 6.40449C11.2419 6.66472 11.4483 6.97365 11.5891 7.31366C11.73 7.65367 11.8025 8.01808 11.8025 8.3861C11.8025 8.75412 11.73 9.11854 11.5891 9.45854C11.4483 9.79855 11.2419 10.1075 10.9816 10.3677C10.7214 10.6279 10.4125 10.8344 10.0725 10.9752C9.73247 11.116 9.36805 11.1885 9.00003 11.1885C8.26576 11.1751 7.56609 10.874 7.05156 10.35C6.53703 9.82601 6.24875 9.12096 6.24875 8.38657C6.24875 7.65218 6.53703 6.94713 7.05156 6.42312C7.56609 5.89911 8.26576 5.59801 9.00003 5.58461V5.58368ZM9.00003 6.98396C8.8159 6.98396 8.63357 7.02022 8.46345 7.09069C8.29334 7.16115 8.13877 7.26443 8.00856 7.39464C7.87836 7.52484 7.77508 7.67941 7.70462 7.84952C7.63415 8.01964 7.59789 8.20197 7.59789 8.3861C7.59789 8.57024 7.63415 8.75256 7.70462 8.92268C7.77508 9.0928 7.87836 9.24737 8.00856 9.37757C8.13877 9.50777 8.29334 9.61105 8.46345 9.68152C8.63357 9.75198 8.8159 9.78825 9.00003 9.78825C9.37178 9.78825 9.7283 9.64057 9.99117 9.37771C10.254 9.11484 10.4017 8.75832 10.4017 8.38657C10.4017 8.01482 10.254 7.6583 9.99117 7.39543C9.7283 7.13257 9.37178 6.98489 9.00003 6.98489V6.98396Z" fill="#616870"/>
</svg>
