<svg width="204" height="82" viewBox="0 0 204 82" fill="none" xmlns="http://www.w3.org/2000/svg">
<path d="M25.4491 49.8608H23.1805V81.415H25.4491V49.8608Z" fill="white"/>
<path d="M60.5252 52.9023H58.2566V59.6577H53.8066V61.9095H58.2566V81.4152H60.5252V61.9095H64.9752V59.6577H60.5252V52.9023Z" fill="white"/>
<path d="M48.8914 62.6991C47.5244 60.7105 45.5467 59.2191 43.0745 58.4587C41.9983 58.1078 40.864 57.9031 39.7006 57.9031C39.6715 57.9031 39.6134 57.9031 39.5843 57.9031C39.5552 57.9031 39.5261 57.9031 39.497 57.9031C39.4679 57.9031 39.4389 57.9031 39.4098 57.9031C39.3807 57.9031 39.3225 57.9031 39.2934 57.9031C38.1301 57.9031 36.9957 58.1078 35.9196 58.4587C30.9461 59.9794 27.9795 64.5122 27.9795 69.9516C27.9795 75.4202 30.9461 79.9237 35.9196 81.4444C36.9957 81.7954 38.1301 82.0001 39.2934 82.0001C39.3225 82.0001 39.3807 82.0001 39.4098 82.0001C39.4389 82.0001 39.4679 82.0001 39.497 82.0001C39.5261 82.0001 39.5552 82.0001 39.5843 82.0001C39.6134 82.0001 39.6715 82.0001 39.7006 82.0001C40.864 82.0001 41.9983 81.7954 43.0745 81.4444C45.5467 80.6841 47.5244 79.1926 48.8914 77.2041V81.4152H51.16V58.5464H48.8914V62.6991ZM48.746 69.9516C48.746 74.5136 46.3319 78.0814 42.4346 79.2511H42.4055H42.3764C41.5039 79.5436 40.6313 79.6898 39.7297 79.6898H39.6425H39.6134H39.5843C39.5552 79.6898 39.5552 79.6898 39.5261 79.6898C39.497 79.6898 39.497 79.6898 39.4679 79.6898H39.4389H39.4098H39.3225C38.4209 79.6898 37.5193 79.5436 36.6758 79.2511H36.6467H36.6176C32.7203 78.0521 30.3063 74.4844 30.3063 69.9516C30.3063 65.4188 32.7203 61.851 36.6176 60.652H36.6467H36.6758C37.5484 60.3596 38.4209 60.2133 39.3225 60.2133H39.4098H39.4389H39.4679C39.497 60.2133 39.497 60.2133 39.5261 60.2133C39.5552 60.2133 39.5552 60.2133 39.5843 60.2133H39.6134H39.6425H39.7297C40.6313 60.2133 41.533 60.3596 42.3764 60.652H42.4055H42.4346C46.3029 61.8218 48.7169 65.3895 48.746 69.9516Z" fill="white"/>
<path d="M199.55 59.6577V52.9023H197.281V59.6577H192.831V61.9095H197.281V81.4152H199.55V61.9095H204V59.6577H199.55Z" fill="white"/>
<path d="M0 49.8608V52.1711V81.415H2.26861V66.0327H19.225V63.7517H2.26861V52.1711H21.9299V49.8608H2.26861H0Z" fill="white"/>
<path d="M124.512 62.6991C123.145 60.7105 121.167 59.2191 118.695 58.4587C117.618 58.1078 116.484 57.9031 115.321 57.9031C115.292 57.9031 115.233 57.9031 115.204 57.9031C115.175 57.9031 115.146 57.9031 115.117 57.9031C115.088 57.9031 115.059 57.9031 115.03 57.9031C115.001 57.9031 114.943 57.9031 114.914 57.9031C113.75 57.9031 112.616 58.1078 111.54 58.4587C106.566 59.9794 103.6 64.5122 103.6 69.9516C103.6 75.4202 106.566 79.9237 111.54 81.4444C112.616 81.7954 113.75 82.0001 114.914 82.0001C114.943 82.0001 115.001 82.0001 115.03 82.0001C115.059 82.0001 115.088 82.0001 115.117 82.0001C115.146 82.0001 115.175 82.0001 115.204 82.0001C115.233 82.0001 115.292 82.0001 115.321 82.0001C116.484 82.0001 117.618 81.7954 118.695 81.4444C121.167 80.6841 123.145 79.1926 124.512 77.2041V81.4152H126.78V58.5464H124.512V62.6991ZM124.366 69.9516C124.366 74.5136 121.952 78.0814 118.055 79.2511H118.026H117.997C117.124 79.5436 116.251 79.6898 115.35 79.6898H115.263H115.233H115.204C115.175 79.6898 115.175 79.6898 115.146 79.6898C115.117 79.6898 115.117 79.6898 115.088 79.6898H115.059H115.03H114.943C114.041 79.6898 113.139 79.5436 112.296 79.2511H112.267H112.238C108.34 78.0521 105.926 74.4844 105.926 69.9516C105.926 65.4188 108.34 61.851 112.238 60.652H112.267H112.296C113.168 60.3596 114.041 60.2133 114.943 60.2133H115.03H115.059H115.088C115.117 60.2133 115.117 60.2133 115.146 60.2133C115.175 60.2133 115.175 60.2133 115.204 60.2133H115.233H115.263H115.35C116.251 60.2133 117.153 60.3596 117.997 60.652H118.026H118.055C121.923 61.8218 124.337 65.3895 124.366 69.9516Z" fill="white"/>
<path d="M92.9255 58.0786C91.1223 58.0786 89.29 58.4587 87.8939 59.1898C86.4687 59.9502 85.3926 60.9737 84.6364 62.2897C84.0256 60.886 83.2694 59.8332 82.0188 59.1313C80.7681 58.4295 79.2848 58.0493 77.5688 58.0493C75.8819 58.0493 74.3986 58.371 73.0898 59.0436C71.8391 59.687 70.6758 60.5935 69.9486 61.7633C69.9195 61.851 69.8905 61.968 69.8614 62.0557V58.5172H67.5928V81.386H69.8614V67.7875L69.8905 67.6998C69.8905 65.448 70.7921 63.6642 72.0427 62.3774C73.2643 61.0907 74.9512 60.4473 77.0453 60.4473C78.9358 60.4473 80.5936 60.8275 81.6116 61.9388C82.6296 63.0208 82.9495 64.7754 82.9495 66.8517V81.503H85.4217V67.6998C85.4217 65.448 86.3233 63.6642 87.5449 62.3774C88.7664 61.0907 90.4243 60.4473 92.5474 60.4473C94.4089 60.4473 96.0376 60.8275 97.0846 61.9388C98.1026 63.0208 98.7134 64.7754 98.7134 66.8517V81.503H101.186V66.5885C101.186 63.7811 100.458 61.6463 98.9751 60.1841C97.5209 58.7804 95.485 58.0786 92.9255 58.0786Z" fill="white"/>
<path d="M133.266 62.8746V58.5465H130.997V81.4153H133.266V69.5422C134.778 59.3654 142.66 60.5059 143.126 60.5936V58.1079C135.069 57.8447 133.295 62.7577 133.266 62.8746Z" fill="white"/>
<path d="M167.557 58.1954H163.689L147.779 69.8929V49.8608H145.511V81.415H147.779V72.7296L153.102 68.8402L165.027 81.5613H168.197L154.934 67.4657L167.557 58.1954Z" fill="white"/>
<path d="M191.814 69.9515C191.814 69.6298 191.814 69.3082 191.784 68.9865V68.7525H191.755C191.348 63.8395 188.701 59.8331 183.99 58.4294C182.914 58.0785 181.75 57.8738 180.558 57.8738C180.529 57.8738 180.471 57.8738 180.441 57.8738C180.412 57.8738 180.383 57.8738 180.354 57.8738C180.325 57.8738 180.296 57.8738 180.267 57.8738C180.238 57.8738 180.18 57.8738 180.151 57.8738C178.958 57.8738 177.795 58.0785 176.719 58.4294C171.629 59.9501 168.633 64.4829 168.633 69.9223C168.633 75.3909 171.658 79.8945 176.719 81.4152C177.795 81.7661 178.958 81.9708 180.151 81.9708C180.18 81.9708 180.238 81.9708 180.267 81.9708C180.296 81.9708 180.325 81.9708 180.354 81.9708C180.383 81.9708 180.412 81.9708 180.441 81.9708C180.471 81.9708 180.529 81.9708 180.558 81.9708C181.75 81.9708 182.914 81.7661 183.99 81.4152C187.654 80.3039 190.243 77.6719 191.406 74.2211H188.963C187.916 76.6191 185.968 78.4323 183.379 79.1926H183.35H183.321C182.448 79.4851 181.518 79.6313 180.587 79.6313H180.5H180.471H180.441C180.412 79.6313 180.412 79.6313 180.383 79.6313C180.354 79.6313 180.354 79.6313 180.325 79.6313H180.296H180.267H180.18C179.249 79.6313 178.318 79.4851 177.446 79.1926H177.417H177.388C173.694 78.0813 171.28 74.923 170.96 70.8581H189.516H191.814C191.784 70.5949 191.814 70.2732 191.814 69.9515ZM170.96 68.7525C171.367 64.7754 173.723 61.734 177.358 60.6227H177.388H177.417C178.289 60.3303 179.22 60.1841 180.151 60.1841H180.238H180.267H180.296C180.325 60.1841 180.325 60.1841 180.354 60.1841C180.383 60.1841 180.383 60.1841 180.412 60.1841H180.441H180.471H180.558C181.488 60.1841 182.419 60.3303 183.292 60.6227H183.321H183.35C186.986 61.7047 189.08 64.7754 189.487 68.7525H170.96Z" fill="white"/>
<path d="M102.291 0L77.8597 24.5649L102.291 49.1298L126.722 24.5649L102.291 0ZM102.291 46.7611L89.1737 33.572H115.408L102.291 46.7611ZM95.5723 31.6712V28.3959H108.137V28.1034H95.5723V27.3431H108.137V27.0506H95.5723V26.2903H108.137V25.9979H95.5723V25.2375H108.137V24.9451H95.5723V24.1847H108.137V23.8923H95.5723V21.2896H113.459V20.9972H95.2815V31.7004H94.5834V20.2076H113.459V19.9151H94.2926V31.6712H93.5946V19.1255H113.459V18.8331H93.3037V31.6712H92.6057V18.0728H113.459V17.7803H92.3148V31.6712H91.6168V16.9907H113.488V16.6983H91.3259V31.6712H87.3123L80.1865 24.5649L102.291 2.33952L124.395 24.5649L117.328 31.6712H95.5723Z" fill="white"/>
</svg>
